<svg width="9" height="7" viewBox="0 0 9 7" fill="none" xmlns="http://www.w3.org/2000/svg">
<path d="M2.0301 1.06699C2.48275 1.06275 2.85659 1.11525 3.15163 1.22449C3.44662 1.32906 3.66749 1.49267 3.81425 1.7153C3.96097 1.93327 4.0359 2.21025 4.03904 2.54624C4.04119 2.77489 3.99873 2.97596 3.91169 3.14945C3.82927 3.31823 3.71629 3.46397 3.57277 3.58665C3.43387 3.70462 3.2831 3.8017 3.12048 3.8779L4.6108 6.04103L3.43485 6.05205L2.22694 4.14528L1.65997 4.15059L1.67793 6.0685L0.620978 6.0784L0.574166 1.08062L2.0301 1.06699ZM1.96124 1.93567L1.63925 1.93869L1.6519 3.28963L1.99489 3.28641C2.22821 3.28423 2.41696 3.25679 2.56114 3.20411C2.70532 3.15142 2.8096 3.07344 2.87396 2.97017C2.93829 2.86223 2.96975 2.73359 2.96835 2.58427C2.96687 2.42561 2.92836 2.29996 2.85282 2.20733C2.7819 2.10999 2.67159 2.04102 2.52187 2.00042C2.37677 1.95511 2.18989 1.93353 1.96124 1.93567Z" fill="white"/>
<path d="M6.17329 3.08627C6.17465 3.23093 6.169 3.37566 6.15636 3.52045C6.14833 3.66053 6.138 3.80296 6.12536 3.94776L6.13936 3.94763C6.18541 3.88186 6.23146 3.81609 6.27751 3.75032C6.32823 3.68451 6.37895 3.6187 6.42967 3.55289C6.48039 3.48708 6.53347 3.42358 6.58889 3.36239L7.64896 2.19041L8.82491 2.17939L7.32152 3.85255L8.95171 6.00037L7.74776 6.01165L6.63432 4.47501L6.18968 4.83619L6.20083 6.02614L5.15787 6.03591L5.10804 0.716142L6.151 0.706374L6.17329 3.08627Z" fill="#F08C00"/>
</svg>
