<svg width="41" height="40" viewBox="0 0 41 40" fill="none" xmlns="http://www.w3.org/2000/svg">
<ellipse cx="20.35" cy="20" rx="20.35" ry="20" fill="#F08C00"/>
<g clip-path="url(#clip0_4_90)">
<path d="M25.4375 16H28.49L31.5425 20.056V26H29.4719C29.351 26.8343 28.9278 27.5977 28.2801 28.1499C27.6324 28.7022 26.8037 29.0063 25.9463 29.0063C25.0888 29.0063 24.2601 28.7022 23.6125 28.1499C22.9648 27.5977 22.5416 26.8343 22.4206 26H17.2619C17.141 26.8343 16.7178 27.5977 16.0701 28.1499C15.4224 28.7022 14.5937 29.0063 13.7363 29.0063C12.8788 29.0063 12.0501 28.7022 11.4025 28.1499C10.7548 27.5977 10.3316 26.8343 10.2106 26H9.15753V14C9.15753 13.7348 9.26473 13.4804 9.45555 13.2929C9.64637 13.1054 9.90517 13 10.175 13H24.42C24.6899 13 24.9487 13.1054 25.1395 13.2929C25.3303 13.4804 25.4375 13.7348 25.4375 14V16ZM25.4375 18V21H29.5075V20.715L27.4644 18H25.4375Z" fill="white"/>
</g>
<defs>
<clipPath id="clip0_4_90">
<rect width="24.42" height="24" fill="white" transform="translate(8.14001 8)"/>
</clipPath>
</defs>
</svg>
