<svg width="123" height="25" viewBox="0 0 123 25" fill="none" xmlns="http://www.w3.org/2000/svg">
<path d="M5.152 1.864C6.704 1.864 7.984 2.056 8.992 2.44C10 2.808 10.752 3.376 11.248 4.144C11.744 4.896 11.992 5.848 11.992 7C11.992 7.784 11.84 8.472 11.536 9.064C11.248 9.64 10.856 10.136 10.36 10.552C9.88 10.952 9.36 11.28 8.8 11.536L13.84 19H9.808L5.728 12.424H3.784V19H0.16V1.864H5.152ZM4.888 4.84H3.784V9.472H4.96C5.76 9.472 6.408 9.384 6.904 9.208C7.4 9.032 7.76 8.768 7.984 8.416C8.208 8.048 8.32 7.608 8.32 7.096C8.32 6.552 8.192 6.12 7.936 5.8C7.696 5.464 7.32 5.224 6.808 5.08C6.312 4.92 5.672 4.84 4.888 4.84ZM27.6198 12.424C27.6198 13.512 27.4678 14.48 27.1638 15.328C26.8758 16.176 26.4518 16.896 25.8918 17.488C25.3478 18.064 24.6838 18.504 23.8998 18.808C23.1158 19.096 22.2278 19.24 21.2358 19.24C20.3238 19.24 19.4758 19.096 18.6918 18.808C17.9238 18.504 17.2598 18.064 16.6998 17.488C16.1398 16.896 15.6998 16.176 15.3798 15.328C15.0758 14.48 14.9238 13.512 14.9238 12.424C14.9238 10.968 15.1798 9.744 15.6918 8.752C16.2038 7.744 16.9398 6.976 17.8998 6.448C18.8598 5.92 19.9958 5.656 21.3078 5.656C22.5398 5.656 23.6278 5.92 24.5718 6.448C25.5158 6.976 26.2598 7.744 26.8038 8.752C27.3478 9.744 27.6198 10.968 27.6198 12.424ZM18.5718 12.424C18.5718 13.288 18.6598 14.016 18.8358 14.608C19.0278 15.184 19.3238 15.624 19.7238 15.928C20.1238 16.216 20.6438 16.36 21.2838 16.36C21.9238 16.36 22.4358 16.216 22.8198 15.928C23.2198 15.624 23.5078 15.184 23.6838 14.608C23.8758 14.016 23.9718 13.288 23.9718 12.424C23.9718 11.56 23.8758 10.84 23.6838 10.264C23.5078 9.688 23.2198 9.256 22.8198 8.968C22.4198 8.68 21.8998 8.536 21.2598 8.536C20.3158 8.536 19.6278 8.864 19.1958 9.52C18.7798 10.16 18.5718 11.128 18.5718 12.424ZM37.8951 5.656C38.0711 5.656 38.2791 5.664 38.5191 5.68C38.7591 5.696 38.9511 5.72 39.0951 5.752L38.8311 9.112C38.7191 9.08 38.5511 9.056 38.3271 9.04C38.1191 9.008 37.9351 8.992 37.7751 8.992C37.3111 8.992 36.8631 9.056 36.4311 9.184C35.9991 9.296 35.6071 9.48 35.2551 9.736C34.9191 9.992 34.6471 10.336 34.4391 10.768C34.2471 11.184 34.1511 11.704 34.1511 12.328V19H30.5751V5.896H33.2871L33.8151 8.104H33.9831C34.2391 7.656 34.5591 7.248 34.9431 6.88C35.3271 6.512 35.7671 6.216 36.2631 5.992C36.7751 5.768 37.3191 5.656 37.8951 5.656ZM52.9088 12.424C52.9088 13.512 52.7568 14.48 52.4528 15.328C52.1648 16.176 51.7408 16.896 51.1808 17.488C50.6368 18.064 49.9728 18.504 49.1888 18.808C48.4048 19.096 47.5168 19.24 46.5248 19.24C45.6128 19.24 44.7648 19.096 43.9808 18.808C43.2128 18.504 42.5488 18.064 41.9888 17.488C41.4288 16.896 40.9888 16.176 40.6688 15.328C40.3648 14.48 40.2128 13.512 40.2128 12.424C40.2128 10.968 40.4688 9.744 40.9808 8.752C41.4928 7.744 42.2288 6.976 43.1888 6.448C44.1488 5.92 45.2848 5.656 46.5968 5.656C47.8288 5.656 48.9168 5.92 49.8608 6.448C50.8048 6.976 51.5488 7.744 52.0928 8.752C52.6368 9.744 52.9088 10.968 52.9088 12.424ZM43.8608 12.424C43.8608 13.288 43.9488 14.016 44.1248 14.608C44.3168 15.184 44.6128 15.624 45.0128 15.928C45.4128 16.216 45.9328 16.36 46.5728 16.36C47.2128 16.36 47.7248 16.216 48.1088 15.928C48.5088 15.624 48.7968 15.184 48.9728 14.608C49.1648 14.016 49.2608 13.288 49.2608 12.424C49.2608 11.56 49.1648 10.84 48.9728 10.264C48.7968 9.688 48.5088 9.256 48.1088 8.968C47.7088 8.68 47.1888 8.536 46.5488 8.536C45.6048 8.536 44.9168 8.864 44.4848 9.52C44.0688 10.16 43.8608 11.128 43.8608 12.424ZM71.2482 5.656C72.7362 5.656 73.8562 6.04 74.6082 6.808C75.3762 7.56 75.7602 8.776 75.7602 10.456V19H72.1842V11.344C72.1842 10.4 72.0242 9.696 71.7042 9.232C71.3842 8.752 70.8882 8.512 70.2162 8.512C69.2722 8.512 68.6002 8.848 68.2002 9.52C67.8002 10.192 67.6002 11.16 67.6002 12.424V19H64.0242V11.344C64.0242 10.72 63.9522 10.2 63.8082 9.784C63.6642 9.368 63.4482 9.056 63.1602 8.848C62.8722 8.624 62.5042 8.512 62.0562 8.512C61.4002 8.512 60.8802 8.68 60.4962 9.016C60.1122 9.352 59.8402 9.84 59.6802 10.48C59.5202 11.12 59.4402 11.904 59.4402 12.832V19H55.8642V5.896H58.6002L59.0802 7.576H59.2722C59.5442 7.128 59.8802 6.768 60.2802 6.496C60.6802 6.208 61.1202 6 61.6002 5.872C62.0962 5.728 62.5922 5.656 63.0882 5.656C64.0482 5.656 64.8642 5.816 65.5362 6.136C66.2082 6.44 66.7202 6.92 67.0722 7.576H67.3842C67.7842 6.904 68.3362 6.416 69.0402 6.112C69.7602 5.808 70.4962 5.656 71.2482 5.656ZM86.7383 5.656C88.2103 5.656 89.4023 6.232 90.3143 7.384C91.2263 8.52 91.6823 10.2 91.6823 12.424C91.6823 13.912 91.4663 15.168 91.0343 16.192C90.6023 17.2 90.0103 17.96 89.2583 18.472C88.5063 18.984 87.6343 19.24 86.6423 19.24C86.0183 19.24 85.4743 19.16 85.0103 19C84.5623 18.84 84.1783 18.632 83.8583 18.376C83.5383 18.12 83.2583 17.848 83.0183 17.56H82.8263C82.8903 17.864 82.9383 18.184 82.9703 18.52C83.0023 18.84 83.0183 19.16 83.0183 19.48V24.76H79.4423V5.896H82.3463L82.8503 7.6H83.0183C83.2583 7.248 83.5463 6.928 83.8823 6.64C84.2183 6.336 84.6183 6.096 85.0823 5.92C85.5623 5.744 86.1143 5.656 86.7383 5.656ZM85.5863 8.512C84.9623 8.512 84.4663 8.64 84.0983 8.896C83.7303 9.152 83.4583 9.544 83.2823 10.072C83.1223 10.584 83.0343 11.232 83.0183 12.016V12.4C83.0183 13.248 83.0983 13.968 83.2583 14.56C83.4183 15.136 83.6903 15.576 84.0743 15.88C84.4583 16.184 84.9783 16.336 85.6343 16.336C86.1783 16.336 86.6263 16.184 86.9783 15.88C87.3303 15.576 87.5943 15.128 87.7703 14.536C87.9463 13.944 88.0343 13.224 88.0343 12.376C88.0343 11.096 87.8343 10.136 87.4343 9.496C87.0503 8.84 86.4343 8.512 85.5863 8.512Z" fill="white"/>
<path d="M106.534 12.424C106.534 13.512 106.382 14.48 106.078 15.328C105.79 16.176 105.366 16.896 104.806 17.488C104.262 18.064 103.598 18.504 102.814 18.808C102.03 19.096 101.142 19.24 100.15 19.24C99.2378 19.24 98.3898 19.096 97.6058 18.808C96.8378 18.504 96.1738 18.064 95.6138 17.488C95.0538 16.896 94.6138 16.176 94.2938 15.328C93.9898 14.48 93.8378 13.512 93.8378 12.424C93.8378 10.968 94.0938 9.744 94.6058 8.752C95.1178 7.744 95.8538 6.976 96.8138 6.448C97.7738 5.92 98.9098 5.656 100.222 5.656C101.454 5.656 102.542 5.92 103.486 6.448C104.43 6.976 105.174 7.744 105.718 8.752C106.262 9.744 106.534 10.968 106.534 12.424ZM97.4858 12.424C97.4858 13.288 97.5738 14.016 97.7498 14.608C97.9418 15.184 98.2378 15.624 98.6378 15.928C99.0378 16.216 99.5578 16.36 100.198 16.36C100.838 16.36 101.35 16.216 101.734 15.928C102.134 15.624 102.422 15.184 102.598 14.608C102.79 14.016 102.886 13.288 102.886 12.424C102.886 11.56 102.79 10.84 102.598 10.264C102.422 9.688 102.134 9.256 101.734 8.968C101.334 8.68 100.814 8.536 100.174 8.536C99.2298 8.536 98.5418 8.864 98.1098 9.52C97.6938 10.16 97.4858 11.128 97.4858 12.424ZM113.065 8.92C113.065 9.416 113.041 9.912 112.993 10.408C112.961 10.888 112.921 11.376 112.873 11.872H112.921C113.081 11.648 113.241 11.424 113.401 11.2C113.577 10.976 113.753 10.752 113.929 10.528C114.105 10.304 114.289 10.088 114.481 9.88L118.153 5.896H122.185L116.977 11.584L122.497 19H118.369L114.601 13.696L113.065 14.92V19H109.489V0.759999H113.065V8.92Z" fill="#F08C00"/>
</svg>
