<svg width="41" height="40" viewBox="0 0 41 40" fill="none" xmlns="http://www.w3.org/2000/svg">
<ellipse cx="20.35" cy="20" rx="20.35" ry="20" fill="#F08C00"/>
<g clip-path="url(#clip0_4_112)">
<path d="M23.4025 29H21.3675V26H19.3325V29H17.2975V27H15.2625V29H12.21C11.9401 29 11.6813 28.8946 11.4905 28.7071C11.2997 28.5196 11.1925 28.2652 11.1925 28V25H13.2275V23H11.1925V21H14.245V19H11.1925V17H13.2275V15H11.1925V12C11.1925 11.7348 11.2997 11.4804 11.4905 11.2929C11.6813 11.1054 11.9401 11 12.21 11H18.315C18.5848 11 18.8436 11.1054 19.0345 11.2929C19.2253 11.4804 19.3325 11.7348 19.3325 12V21H28.49C28.7598 21 29.0186 21.1054 29.2095 21.2929C29.4003 21.4804 29.5075 21.7348 29.5075 22V28C29.5075 28.2652 29.4003 28.5196 29.2095 28.7071C29.0186 28.8946 28.7598 29 28.49 29H25.4375V27H23.4025V29Z" fill="white"/>
</g>
<defs>
<clipPath id="clip0_4_112">
<rect width="24.42" height="24" fill="white" transform="translate(8.13998 8)"/>
</clipPath>
</defs>
</svg>
