<svg width="41" height="40" viewBox="0 0 41 40" fill="none" xmlns="http://www.w3.org/2000/svg">
<ellipse cx="20.35" cy="20" rx="20.35" ry="20" fill="#F08C00"/>
<g clip-path="url(#clip0_4_91)">
<path d="M28.0443 20.098L29.6021 22.75C30.586 24.424 30.002 26.565 28.2997 27.531C27.7574 27.838 27.1438 28 26.5191 28H24.42V30L19.3325 26.5L24.42 23V25H26.5181C26.6076 25 26.6951 24.977 26.7724 24.933C26.9892 24.81 27.0787 24.555 26.9973 24.332L26.9586 24.25L25.4008 21.598L28.0443 20.098ZM16.0124 17.384L16.5517 23.464L14.7914 22.464L13.7413 24.25C13.6965 24.326 13.6731 24.412 13.6731 24.5C13.6731 24.745 13.8532 24.95 14.0903 24.992L14.1819 25H17.2975V28H14.1819C12.2151 28 10.6206 26.433 10.6206 24.5C10.6206 23.886 10.7855 23.282 11.0979 22.75L12.1469 20.964L10.3846 19.964L16.0114 17.384H16.0124ZM22.1306 10.969C22.6719 11.276 23.1216 11.718 23.434 12.25L24.482 14.036L26.2454 13.036L25.7061 19.116L20.0773 16.536L21.8396 15.536L20.7906 13.75C20.7458 13.674 20.6817 13.61 20.6044 13.567C20.3876 13.444 20.118 13.495 19.9623 13.677L19.9094 13.75L18.3526 16.402L15.7081 14.902L17.2649 12.25C18.2488 10.576 20.4273 10.002 22.1306 10.969Z" fill="white"/>
</g>
<defs>
<clipPath id="clip0_4_91">
<rect width="24.42" height="24" fill="white" transform="translate(8.13998 8)"/>
</clipPath>
</defs>
</svg>
